<?xml version="1.0" encoding="iso-8859-1"?>
<!-- Uploaded to: SVG Repo, www.svgrepo.com, Generator: SVG Repo Mixer Tools -->
<!DOCTYPE svg PUBLIC "-//W3C//DTD SVG 1.1//EN" "http://www.w3.org/Graphics/SVG/1.1/DTD/svg11.dtd">
<svg fill="#000000" height="800px" width="800px" version="1.1" id="Capa_1" xmlns="http://www.w3.org/2000/svg" xmlns:xlink="http://www.w3.org/1999/xlink" 
	 viewBox="0 0 297.62 297.62" xml:space="preserve">
<g>
	<path d="M150.319,227.599L137.335,41.602c-0.435-6.226,1.758-12.413,6.018-16.976c4.254-4.556,10.268-7.17,16.501-7.17h0.007h0.007
		h0.007l22.205,0.021l0.608-9.329c0.136-2.088-0.598-4.14-2.029-5.668c-1.43-1.528-3.429-2.396-5.522-2.398L87.271,0
		c-2.102-0.002-4.109,0.869-5.543,2.405c-1.434,1.536-2.165,3.599-2.019,5.696l13.676,195.919l-39.572,20.076
		c-11.736,5.954-16.966,19.896-12.042,32.1c2.187,5.419,7.445,8.968,13.289,8.968h44.971c0.021-0.058,0.039-0.117,0.061-0.175
		c3.558-9.484,10.493-17.231,19.526-21.814L150.319,227.599z"/>
	<path d="M257.66,273.136c-0.732-17.756-8.198-29.01-15.139-36.635l2.293-35.213h-13.543c-2.569,4.334-7.28,7.249-12.684,7.249
		c-8.146,0-14.75-6.604-14.75-14.75c0-8.146,6.604-14.75,14.75-14.75c5.404,0,10.116,2.915,12.685,7.251h14.519l2.344-36h-16.865
		c-2.569,4.334-7.28,7.249-12.684,7.249c-8.146,0-14.75-6.604-14.75-14.75c0-8.146,6.604-14.75,14.75-14.75
		c5.404,0,10.116,2.915,12.685,7.251h17.841l2.345-36h-20.186c-2.569,4.334-7.28,7.249-12.684,7.249
		c-8.146,0-14.75-6.604-14.75-14.75c0-8.146,6.604-14.75,14.75-14.75c5.404,0,10.116,2.915,12.685,7.251h21.162l2.845-43.685
		c0.136-2.089-0.598-4.14-2.029-5.668c-1.43-1.528-3.429-2.396-5.522-2.398l-87.867-0.082c-0.002,0-0.005,0-0.007,0
		c-2.099,0-4.104,0.871-5.536,2.406c-1.434,1.536-2.165,3.599-2.019,5.695l13.676,195.919l-39.572,20.076
		c-11.736,5.954-16.966,19.896-12.043,32.099c2.187,5.419,7.445,8.968,13.289,8.968h114.331c6.1,0,11.54-3.865,13.54-9.628
		C256.877,284.088,257.905,279.083,257.66,273.136z"/>
</g>
</svg>