<?xml version="1.0" encoding="iso-8859-1"?>
<!-- Uploaded to: SVG Repo, www.svgrepo.com, Generator: SVG Repo Mixer Tools -->
<!DOCTYPE svg PUBLIC "-//W3C//DTD SVG 1.1//EN" "http://www.w3.org/Graphics/SVG/1.1/DTD/svg11.dtd">
<svg fill="#000000" version="1.1" id="Capa_1" xmlns="http://www.w3.org/2000/svg" xmlns:xlink="http://www.w3.org/1999/xlink" 
	 width="800px" height="800px" viewBox="0 0 326.892 326.892"
	 xml:space="preserve">
<g>
	<path d="M173.913,195.553c0-9.629-4.059-18.941-11.003-25.419c-0.044-0.041-0.333-0.319-1.178-1.082l-0.488-0.439
		c-8.1-7.192-51.281-43.448-107.574-52.477c-2.089-0.608-4.031-0.902-5.935-0.902c-11.966,0-21.699,9.735-21.699,21.701
		c0,1.402,0.145,2.816,0.452,4.304c0.042,0.313,0.113,0.625,0.215,0.924c1.3,5.209,4.567,9.805,9.079,12.798
		c16.071,20.003,91.731,75.579,103.143,75.579C158.217,230.539,173.913,214.843,173.913,195.553z"/>
	<path d="M154.11,233.032c-1.984,1.303-2.875,3.76-2.192,6.037c0.677,2.268,2.766,3.831,5.145,3.831h119.634
		c0.036,0,0.067-0.011,0.104,0c2.973,0,5.375-2.413,5.375-5.374c0-0.981-0.262-1.9-0.719-2.688l-10.744-31.55
		c25.764-28.042,23.512-76.161,23.401-77.978V49.384c0-10.557-8.589-19.147-19.145-19.147c-10.557,0-19.145,8.591-19.145,19.147
		v56.441h-10.422V21.846c0-10.557-8.588-19.148-19.145-19.148c-10.562,0-19.149,8.591-19.149,19.148v83.979h-5.674V19.148
		C201.436,8.591,192.842,0,182.28,0c-10.552,0-19.14,8.591-19.14,19.148v86.678h-7.113V40.649c0-10.557-8.588-19.147-19.147-19.147
		c-10.557,0-19.147,8.591-19.147,19.147v87.35c0,1.654,0.763,3.219,2.071,4.242l52.749,41.137c5.769,8.64,7.826,17.49,6.109,26.31
		C174.91,219.143,154.319,232.896,154.11,233.032z"/>
	<path d="M101.292,252.418v69.099c0,2.96,2.407,5.375,5.375,5.375h188.812c2.966,0,5.375-2.415,5.375-5.375v-69.099
		c0-2.966-2.409-5.376-5.375-5.376H106.668C103.7,247.042,101.292,249.441,101.292,252.418z"/>
</g>
</svg>