<?xml version="1.0" encoding="iso-8859-1"?>
<!-- Uploaded to: SVG Repo, www.svgrepo.com, Generator: SVG Repo Mixer Tools -->
<svg fill="#000000" height="800px" width="800px" version="1.1" id="Layer_1" xmlns="http://www.w3.org/2000/svg" xmlns:xlink="http://www.w3.org/1999/xlink" 
	 viewBox="0 0 512 512" xml:space="preserve">
<g>
	<g>
		<path d="M500.335,51.437l-39.771-39.771c-15.554-15.554-40.863-15.554-56.418,0l-14.051,14.051l-4.121-4.121
			c-8.654-8.654-22.687-8.654-31.343,0c-8.655,8.654-8.655,22.687,0,31.343l4.121,4.121l-84.825,84.825
			c-72.727-33.061-159.858-17.93-217.185,39.395C20.152,217.873,0,266.523,0,318.269c0,51.746,20.152,100.396,56.741,136.987
			c36.591,36.592,85.24,56.743,136.989,56.743c51.747,0,100.398-20.152,136.987-56.743c57.327-57.325,72.455-144.456,39.397-217.185
			l84.825-84.825l4.121,4.121c4.328,4.328,10,6.492,15.671,6.492c5.671,0,11.344-2.165,15.671-6.492
			c8.655-8.654,8.655-22.687,0-31.343l-4.121-4.121l14.051-14.051C515.889,92.299,515.889,66.991,500.335,51.437z M118.642,394.071
			c-14.418,0-26.148-11.73-26.148-26.149s11.73-26.148,26.148-26.148c14.419,0,26.149,11.729,26.149,26.148
			S133.062,394.071,118.642,394.071z M168.522,451.883c-14.419,0-26.149-11.729-26.149-26.148s11.73-26.148,26.149-26.148
			c14.418,0,26.148,11.729,26.148,26.148S182.94,451.883,168.522,451.883z M248.982,431.841c-14.419,0-26.149-11.729-26.149-26.148
			s11.73-26.148,26.149-26.148c14.418,0,26.148,11.729,26.148,26.148S263.4,431.841,248.982,431.841z M328.033,217.471
			c-0.123,0.123-0.225,0.256-0.344,0.381c-7.088,6.854-8.969,17.856-3.883,26.832c4.124,7.277,7.572,14.797,10.362,22.479
			c-22.254-4.267-45.357-4.103-67.533,0.584c-12.506,2.642-25.363,3.341-38.049,2.139c-0.158-0.047-0.307-0.109-0.467-0.152
			l-22.967-6.245c-25.997-7.067-53.673-7.859-80.033-2.29c-20.585,4.35-42.12,3.463-62.276-2.562l-5.458-1.631
			c7.342-16.322,17.665-31.344,30.7-44.379c47.349-47.347,121.051-57.395,179.231-24.431c8.966,5.08,19.957,3.208,26.813-3.862
			c0.132-0.124,0.272-0.233,0.4-0.362l95.565-95.566l33.503,33.503L328.033,217.471z"/>
	</g>
</g>
</svg>